Coordinates
version=1
nRows=4
nColumns=63
inDegrees=yes

Units are S.I. units (second, meters, Newtons, ...)
If the header above contains a line with 'inDegrees', this indicates whether rotational values are in degrees (yes) or radians (no).

endheader
time	pelvis_tilt	pelvis_list	pelvis_rotation	pelvis_tx	pelvis_ty	pelvis_tz	hip_flexion_r	hip_adduction_r	hip_rotation_r	knee_angle_r	knee_angle_r_beta	ankle_angle_r	subtalar_angle_r	mtp_angle_r	hip_flexion_l	hip_adduction_l	hip_rotation_l	knee_angle_l	knee_angle_l_beta	ankle_angle_l	subtalar_angle_l	mtp_angle_l	L5_S1_Flex_Ext	L5_S1_Lat_Bending	L5_S1_axial_rotation	L4_L5_Flex_Ext	L4_L5_Lat_Bending	L4_L5_axial_rotation	L3_L4_Flex_Ext	L3_L4_Lat_Bending	L3_L4_axial_rotation	L2_L3_Flex_Ext	L2_L3_Lat_Bending	L2_L3_axial_rotation	L1_L2_Flex_Ext	L1_L2_Lat_Bending	L1_L2_axial_rotation	L1_T12_Flex_Ext	L1_T12_Lat_Bending	L1_T12_axial_rotation	Abs_r3	Abs_r2	Abs_r1	Abs_t1	Abs_t2	neck_flexion	neck_bending	neck_rotation	arm_flex_r	arm_add_r	arm_rot_r	elbow_flex_r	pro_sup_r	wrist_flex_r	wrist_dev_r	arm_flex_l	arm_add_l	arm_rot_l	elbow_flex_l	pro_sup_l	wrist_flex_l	wrist_dev_l
      1.43333333	     11.63134632	    -48.12770606	    110.38490745	      0.46458701	      0.69602937	      1.04274663	     57.41472181	      0.23323163	     -1.03019139	     21.30711343	      0.37187928	     32.10828858	    -13.46507195	      0.00000000	     57.15228618	      0.15520925	     -0.26940120	     19.68947436	      0.34364616	     34.02417534	      6.78555569	      0.00000000	     -0.14893841	     -0.74395713	     -1.75751047	     -0.27659353	     -0.98946298	     -1.86735487	     -0.24469092	     -1.80885736	     -1.86735487	     -0.17022171	     -1.80885736	     -1.53782166	     -0.13830421	     -1.51707738	     -1.42797726	     -0.08510341	     -1.15238959	     -1.31813285	     -1.06385220	     -8.41579183	     -9.77474597	      0.00000000	      0.00000000	     13.88161754	    -33.79164840	      0.64672735	     -5.86288226	    -16.42911138	     39.26903730	    149.79363680	     60.27207722	     -5.04335712	     18.30934073	    -44.99717647	    -21.89695033	     22.47992215	    133.92303965	     88.75478007	     10.44912077	     19.09650721
      1.45000000	     12.40332465	    -48.30005870	    111.17054694	      0.46260330	      0.69532555	      1.04433710	     57.49478128	      0.22754164	     -1.27403425	     21.00475252	      0.36660209	     31.70314311	    -13.28214953	      0.00000000	     57.71667172	      0.22315178	      0.26129286	     19.88111248	      0.34699087	     34.49254977	      6.80311592	      0.00000000	     -0.11271377	     -0.63026223	     -1.79685123	     -0.20932074	     -0.83824877	     -1.90915443	     -0.18517745	     -1.53241959	     -1.90915443	     -0.12882057	     -1.53241959	     -1.57224483	     -0.10466601	     -1.28523074	     -1.45994162	     -0.06440465	     -0.97627620	     -1.34763842	     -0.80510319	     -7.12965242	     -9.99354749	      0.00000000	      0.00000000	     14.44134318	    -35.31554755	      1.37537179	     -6.35157726	    -16.87873285	     40.67857482	    149.72502640	     60.41890714	     -7.01174967	     23.54863156	    -45.21252749	    -22.31465322	     23.11843517	    133.25002261	     88.79692281	     10.09586666	     18.77835766
      1.46666667	     13.86592013	    -48.24539441	    112.84283209	      0.45957986	      0.69496932	      1.04656868	     57.47899241	      0.15140910	     -2.28840786	     20.58889415	      0.35934399	     31.23501920	    -13.05483543	      0.00000000	     58.32883631	      0.38146116	      1.57848771	     20.06193472	      0.35014682	     34.86525255	      6.75788076	      0.00000000	     -0.10237892	     -0.43939778	     -1.99339636	     -0.19012790	     -0.58439905	     -2.11798363	     -0.16819833	     -1.06835176	     -2.11798363	     -0.11700887	     -1.06835176	     -1.74422181	     -0.09506907	     -0.89601995	     -1.61963454	     -0.05849932	     -0.68062716	     -1.49504727	     -0.73128240	     -4.97055555	    -11.08667253	      0.00000000	      0.00000000	     16.35994042	    -36.76266955	      3.32737090	     -6.31160490	    -17.60602245	     42.85441710	    149.48662991	     61.41681317	     -9.61148195	     30.17767776	    -45.56396040	    -22.25252402	     23.87870900	    132.28581148	     88.86076326	      8.97854318	     17.66445623
      1.48333333	     15.55461635	    -48.13929835	    115.08894101	      0.45605932	      0.69515588	      1.04888956	     57.51434057	     -0.28492827	     -4.21192312	     20.20720441	      0.35268225	     30.98135524	    -12.14362470	      0.00000000	     58.93697436	      0.94788636	      4.05314438	     20.10274622	      0.35085911	     34.83842738	      5.73686455	      0.00000000	     -0.08424674	     -0.22193366	     -2.43407728	     -0.15645463	     -0.29517177	     -2.58620711	     -0.13840898	     -0.53960950	     -2.58620711	     -0.09628560	     -0.53960950	     -2.12981762	     -0.07823153	     -0.45256712	     -1.97768779	     -0.04813859	     -0.34377524	     -1.82555796	     -0.60176607	     -2.51055794	    -13.53760760	      0.00000000	      0.00000000	     19.92948569	    -39.02113263	      6.88004700	     -4.91206705	    -18.76846096	     47.12275676	    148.22203289	     62.49485136	    -12.88098030	     32.74653569	    -46.51465493	    -21.54472748	     24.22673820	    131.07664289	     88.94458369	      6.87938049	     15.64882664
